<svg xmlns="http://www.w3.org/2000/svg" viewBox="0 0 960 1200" role="img" aria-labelledby="title desc"><title id="title">Concept website launch video poster</title><desc id="desc">Layered website frames in Vantalume cream, charcoal and gold.</desc><rect width="960" height="1200" fill="#172024"/><g fill="none" stroke="#c68b30" opacity=".35"><path d="M0 200h960M0 400h960M0 600h960M0 800h960M0 1000h960M160 0v1200M320 0v1200M480 0v1200M640 0v1200M800 0v1200"/></g><rect x="95" y="205" width="700" height="690" rx="20" fill="#f7f1e7" transform="rotate(-5 445 550)"/><rect x="170" y="260" width="700" height="690" rx="20" fill="#eee8dd" stroke="#c68b30" stroke-width="6"/><circle cx="220" cy="310" r="12" fill="#c68b30"/><circle cx="260" cy="310" r="12" fill="#172024"/><rect x="230" y="390" width="580" height="300" fill="#172024"/><path d="M270 750h340M270 805h470" stroke="#172024" stroke-width="17"/><path d="m680 490 90 52-90 52z" fill="#c68b30"/></svg>
