<svg xmlns="http://www.w3.org/2000/svg" viewBox="0 0 960 1200" role="img" aria-labelledby="title desc"><title id="title">Concept localised video campaign poster</title><desc id="desc">Three connected vertical video formats representing market adaptations.</desc><rect width="960" height="1200" fill="#f6f0e7"/><g fill="none" stroke="#c68b30" opacity=".42"><circle cx="480" cy="600" r="430"/><circle cx="480" cy="600" r="330"/><circle cx="480" cy="600" r="230"/></g><rect x="80" y="280" width="240" height="570" rx="24" fill="#172024"/><rect x="360" y="190" width="240" height="660" rx="24" fill="#c68b30"/><rect x="640" y="330" width="240" height="520" rx="24" fill="#172024"/><g fill="#f6f0e7"><rect x="122" y="360" width="156" height="210"/><rect x="402" y="280" width="156" height="250"/><rect x="682" y="410" width="156" height="180"/></g><g stroke="#f6f0e7" stroke-width="15"><path d="M120 650h150M120 700h110M400 620h160M400 670h120M680 670h160M680 720h100"/></g><path d="M320 590h40M600 590h40" stroke="#c68b30" stroke-width="10"/></svg>
